<svg xmlns="http://www.w3.org/2000/svg" version="1.1" xmlns:xlink="http://www.w3.org/1999/xlink" xmlns:svgjs="http://svgjs.dev/svgjs" width="1000" height="1117" viewBox="0 0 1000 1117"><g transform="matrix(1,0,0,1,0.16554464187163376,0.45222672064767266)"><svg viewBox="0 0 221 247" data-background-color="#ffffff" preserveAspectRatio="xMidYMid meet" height="1117" width="1000" xmlns="http://www.w3.org/2000/svg" xmlns:xlink="http://www.w3.org/1999/xlink"><g id="tight-bounds" transform="matrix(1,0,0,1,-0.03658536585362526,-0.0999999999999801)"><svg viewBox="0 0 221.07317073170728 247.19999999999996" height="247.19999999999996" width="221.07317073170728"><g><svg viewBox="0 0 221.07317073170728 247.19999999999996" height="247.19999999999996" width="221.07317073170728"><g><svg viewBox="0 0 221.07317073170728 247.19999999999996" height="247.19999999999996" width="221.07317073170728"><g id="textblocktransform"><svg viewBox="0 0 221.07317073170728 247.19999999999996" height="247.19999999999996" width="221.07317073170728" id="textblock"><g><svg viewBox="0 0 221.07317073170728 247.19999999999996" height="247.19999999999996" width="221.07317073170728"><g transform="matrix(1,0,0,1,0,0)"><svg width="221.07317073170728" viewBox="1.5 -24.100000381469727 22 24.600000381469727" height="247.19999999999996" data-palette-color="#ee3e38"><path d="M12.75 0.5L12.75 0.5Q9.1 0.5 6.3-0.25 3.5-1 1.95-1.8L1.95-1.8 1.95-8.75Q4-7.85 6.18-7.35 8.35-6.85 10.1-6.68 11.85-6.5 12.6-6.5L12.6-6.5Q13.45-6.5 13.8-6.78 14.15-7.05 14.15-7.45L14.15-7.45Q14.15-8 13.25-8.38 12.35-8.75 9.85-9.35L9.85-9.35Q7.8-9.85 5.88-10.63 3.95-11.4 2.73-12.8 1.5-14.2 1.5-16.55L1.5-16.55Q1.5-19.45 2.85-21.1 4.2-22.75 6.7-23.43 9.2-24.1 12.55-24.1L12.55-24.1Q14.45-24.1 16.1-23.9 17.75-23.7 18.45-23.6L18.45-23.6 23.1-20.6 20.85-15.25 12.1-17.15Q10.5-17.15 10.5-16.1L10.5-16.1Q10.5-15 12.8-14.45L12.8-14.45Q14.6-14.05 16.5-13.58 18.4-13.1 19.98-12.35 21.55-11.6 22.53-10.35 23.5-9.1 23.5-7.05L23.5-7.05Q23.5-3.25 20.78-1.38 18.05 0.5 12.75 0.5Z" opacity="1" transform="matrix(1,0,0,1,0,0)" fill="#ee3e38" class="wordmark-text-0" data-fill-palette-color="primary" id="text-0"></path></svg></g></svg></g></svg></g></svg></g></svg></g><defs></defs></svg><rect width="221.07317073170728" height="247.19999999999996" fill="none" stroke="none" visibility="hidden"></rect></g></svg></g></svg>